PathFileType	4	(X/Y/Z)	OpenSim_Sub04_EMGBaseline_Gyro.trc
DataRate	CameraRate	NumFrames	NumMarkers	Units	OrigDataRate	OrigDataStartFrame	OrigNumFrames
100	100	23	8	m	100	993	7941
Frame#	Time	torso_imu_offset_imu	pelvis_imu_offset_imu	tibia_r_imu_offset_imu	femur_r_imu_offset_imu	tibia_l_imu_offset_imu	femur_l_imu_offset_imu	toes_r_imu_offset_imu	toes_l_imu_offset_imu
				X1	Y1	Z1	X2	Y2	Z2	X3	Y3	Z3	X4	Y4	Z4	X5	Y5	Z5	X6	Y6	Z6	X7	Y7	Z7	X8		Y8	Z8	

993	9.92000000	-0.30428600	-0.32827138	0.31644203	-0.01880715	0.05030056	-0.04106732	0.84574141	-0.30701942	-0.78368080	-0.50107768	-0.56288246	-0.72975296	0.12211754	-0.05525889	1.96525728	0.31465706	0.55881188	-0.05330628	-0.20248209	-1.83348423	-0.35062746	0.75945857	-2.46463067	0.55595054
994	9.93000000	-0.27583310	-0.28761452	0.28491388	-0.08395771	-0.01068786	-0.02492741	0.90420174	-0.31107962	-0.99618079	-0.47735708	-0.44116926	-0.50980836	0.14721016	-0.13178911	2.06966295	0.09852548	0.58766173	-0.19768101	-0.06421027	-1.65059411	-0.23910981	0.76858252	-2.79639415	0.61651290
995	9.94000000	-0.25501084	-0.25526169	0.25033758	-0.14918683	-0.06628338	-0.00106380	0.89291323	-0.24802750	-1.06072641	-0.36592377	-0.34768885	-0.25533074	0.16221696	-0.18007426	2.18685611	-0.02984428	0.69850645	-0.38180937	0.58399320	-1.41652779	-0.18234297	0.77793014	-3.10357711	0.65178017
996	9.95000000	-0.21756815	-0.22144242	0.22055799	-0.21542021	-0.11329316	0.02590252	0.83907380	-0.20839098	-1.11678323	-0.30583344	-0.31065786	-0.04202425	0.10845306	-0.22725864	2.30678418	-0.12661209	0.87475362	-0.59059990	1.33946494	-0.61499731	-0.17831994	0.85055760	-3.45069512	0.65996694
997	9.96000000	-0.17523862	-0.18162178	0.19981829	-0.24860475	-0.18489755	0.04350746	0.80371811	-0.26949669	-1.20391719	-0.31309086	-0.38841599	0.12044460	0.02203773	-0.25556907	2.41201564	-0.24141707	1.03212063	-0.77561549	0.89591462	-0.64850434	-0.21103691	0.95372767	-3.79051600	0.69458889
998	9.97000000	-0.15223064	-0.13809944	0.17448204	-0.25232460	-0.26743720	0.02543848	0.66669252	-0.38743757	-1.27071755	-0.29256669	-0.50161709	0.18592824	-0.07839286	-0.27637993	2.47086453	-0.40183481	1.11377215	-0.94073033	0.42995544	-0.51672946	-0.13040435	0.75102932	-4.17568114	0.83795363
999	9.98000000	-0.15222698	-0.10297119	0.15496904	-0.22927746	-0.28328500	-0.03760596	0.46003452	-0.56956109	-1.24527110	-0.20709092	-0.54458801	0.10719954	-0.14339138	-0.27675702	2.45437738	-0.56145734	1.13337760	-1.06868394	0.58672522	-0.36485299	-0.04503679	0.67037810	-4.50211847	0.91424475
1000	9.99000000	-0.15240729	-0.06927209	0.14443901	-0.16089653	-0.23347471	-0.11098736	0.25942374	-0.70097390	-1.17002760	-0.16782087	-0.48672368	-0.05660920	-0.11971208	-0.23303989	2.41097525	-0.67878840	1.08215179	-1.16706648	0.56284920	-0.21971422	0.00260680	1.16585806	-4.65618128	0.89659763
1001	10.00000000	-0.18788458	-0.04008338	0.12982203	-0.09598219	-0.16318029	-0.16536173	0.07690312	-0.71255763	-1.08463786	-0.35095549	-0.38037394	-0.23741820	-0.09497785	-0.12784620	2.42567508	-0.70262461	1.00283142	-1.25444874	0.35499085	-0.21263815	0.00908664	1.47287974	-4.71702132	0.88532049
1002	10.01000000	-0.23414871	-0.00646902	0.11730808	-0.03846191	-0.08344767	-0.22561504	-0.20871812	-0.64005331	-0.98244748	-0.77486261	-0.35097550	-0.45666342	-0.14901402	-0.06470541	2.49254993	-0.61438319	0.93167532	-1.32509732	0.17982333	-0.25628380	0.06417151	1.05454639	-4.72579705	1.17265888
1003	10.02000000	-0.27746801	0.02463026	0.11630405	-0.00383541	-0.00976548	-0.25967288	-0.45710566	-0.54547205	-0.86691404	-1.19138602	-0.43458095	-0.65975502	-0.23661803	-0.08119735	2.51713682	-0.46362811	0.88001401	-1.38325367	0.22407597	-0.21408621	0.06811750	0.91195113	-4.62716945	1.43545343
1004	10.03000000	-0.33076953	0.03936928	0.12697280	0.01152703	0.05521604	-0.28317977	-0.50621248	-0.42342049	-0.78786189	-1.42011561	-0.50557563	-0.75102390	-0.46020277	-0.16384005	2.47310831	-0.32059396	0.83139679	-1.43200353	0.10805324	-0.19955088	0.10287526	0.80534580	-4.46132900	1.72060278
1005	10.04000000	-0.37513352	0.04981309	0.13961643	-0.00293304	0.10603068	-0.29714324	-0.46255584	-0.34764012	-0.71462183	-1.47552401	-0.47108777	-0.74081045	-0.62911951	-0.15138236	2.33214868	-0.22891862	0.79186736	-1.45888734	0.00272241	-0.23055296	0.14096083	1.21882611	-4.09826816	1.89152844
1006	10.05000000	-0.40714779	0.05371737	0.15752151	-0.04188327	0.14494036	-0.29483825	-0.43841301	-0.35736553	-0.66241365	-1.40917697	-0.34478315	-0.71774243	-0.62298198	-0.06372559	2.12894645	-0.16504475	0.75468650	-1.47677257	-0.03512183	-0.20137056	0.16889572	2.08461683	-3.64768623	1.82426941
1007	10.06000000	-0.43836029	0.06087564	0.18095780	-0.10783813	0.16484322	-0.29193326	-0.40717629	-0.36705695	-0.69253143	-1.18222448	-0.16344627	-0.70293396	-0.85780660	0.02602444	1.99032211	-0.11604551	0.73918682	-1.47140968	-0.06157451	-0.20232256	0.20695399	2.76071788	-3.15967150	1.67603938
1008	10.07000000	-0.43719383	0.06892814	0.20272744	-0.17160846	0.17381124	-0.27810020	-0.34764165	-0.33444901	-0.78088123	-0.83583644	-0.00418821	-0.65490488	-1.00151524	-0.01139212	1.85381474	-0.10379314	0.74563202	-1.45544820	-0.11295671	-0.20990646	0.21414044	3.52710934	-2.38017073	1.34185409
1009	10.08000000	-0.40446838	0.08301782	0.22184500	-0.20521128	0.16145275	-0.24906609	-0.26122171	-0.30288998	-0.83006203	-0.48439168	0.07020522	-0.56987432	-0.69691904	-0.12392642	1.65653480	-0.14108127	0.74222280	-1.44181419	-0.11835717	-0.22785085	0.20798151	2.74368863	-0.83236783	0.89225176
1010	10.09000000	-0.35048641	0.10095729	0.25126099	-0.22250400	0.13909826	-0.22252385	-0.15019710	-0.29515333	-0.81179242	-0.23909021	0.03870686	-0.47596222	-0.22734988	-0.21564536	1.41625024	-0.24643387	0.69977531	-1.43757483	-0.09814168	-0.23229915	0.19002217	-0.07760562	0.94701791	1.01972903
1011	10.10000000	-0.31318520	0.10684193	0.29297297	-0.21133523	0.12386384	-0.19478267	-0.05798727	-0.26845790	-0.74472018	-0.14236009	-0.06846828	-0.43210569	0.01042490	-0.42798435	1.10132673	-0.38369189	0.57108006	-1.43387699	-0.09900664	-0.25758047	0.15627548	-0.27884787	1.45458507	1.17313434
1012	10.11000000	-0.29380663	0.12206925	0.33620462	-0.19167622	0.11767308	-0.19677067	0.04026520	-0.21741742	-0.67567032	-0.11515767	-0.22012802	-0.43377379	0.29614195	-0.63186637	0.62175596	-0.56950533	0.41718787	-1.37520071	-0.05782466	-0.27553781	0.11594964	-0.40592051	1.37973441	1.40002930
1013	10.12000000	-0.28755245	0.14521994	0.37564317	-0.12999578	0.10301277	-0.19200417	0.12550783	-0.18555393	-0.61715834	-0.09040770	-0.35602392	-0.48138705	0.63285128	-0.50586634	-0.02215177	-0.68430975	0.31594292	-1.31308992	-0.00454726	-0.25102225	0.06560296	-0.35465074	1.75269052	1.29309289
1014	10.13000000	-0.29914511	0.16367624	0.43308342	-0.08494825	0.08960534	-0.20724455	0.12542244	-0.18049458	-0.59048171	-0.05104094	-0.42986802	-0.53416554	0.79625728	-0.19425330	-0.66514705	-0.66623436	0.25063042	-1.31372234	0.01286698	-0.25845890	0.03780810	-0.25626500	2.38050043	0.92301267
1015	10.14000000	-0.32015967	0.15782877	0.49483219	-0.03839675	0.07952297	-0.22825267	0.06514500	-0.20284197	-0.59760447	-0.04972873	-0.45248448	-0.58360295	0.50854549	0.04470689	-1.20530465	-0.57754663	0.19653876	-1.31989469	0.03476118	-0.26533508	0.00445249	-0.29290476	2.93544140	0.54098663
